<?xml version="1.0" encoding="UTF-8"?><svg id="Lag_1" xmlns="http://www.w3.org/2000/svg" width="253" height="396" viewBox="0 0 253 396"><defs><style>.cls-1{fill:#fcdfb5;}.cls-2{fill:#ffe9c9;}.cls-3{stroke:#fbb03b;}.cls-3,.cls-4{fill:none;stroke-miterlimit:10;}.cls-5{fill:#fff;}.cls-6{fill:#23312a;}.cls-7{fill:#ea3400;}.cls-4{stroke:#000;stroke-width:2px;}.cls-8{fill:#324a3e;}</style></defs><rect class="cls-1" x="243.9" y="199.9" width="3.21" height="14" rx="1.5" ry="1.5" transform="translate(62.99 -57.24) rotate(15.23)"/><rect class="cls-1" x="238.11" y="191.93" width="6" height="20" rx="3" ry="3" transform="translate(51.5 -48.98) rotate(12.98)"/><rect class="cls-1" x="163.11" y="265.29" width="70.27" height="32.87" rx="9" ry="9" transform="translate(-79.39 77.78) rotate(-18.57)"/><rect class="cls-6" x="60.12" y="283.81" width="115.95" height="82.51"/><ellipse class="cls-6" cx="117.77" cy="290.41" rx="58.31" ry="58.09"/><rect class="cls-1" x="46.53" y="169.89" width="142.86" height="51" rx="25.5" ry="25.5" transform="translate(-77.43 313.35) rotate(-90)"/><ellipse class="cls-1" cx="117.85" cy="138.13" rx="69" ry="91.98"/><ellipse class="cls-1" cx="49.73" cy="137.18" rx="22.35" ry="23.61"/><path class="cls-4" d="M124.37,172.9c-3.38,4.23-9.89,4.62-14.54.87"/><rect class="cls-6" x="155.93" y="258.41" width="41.52" height="44.55" rx="7.85" ry="7.85" transform="translate(67.54 -32.51) rotate(12.98)"/><rect class="cls-1" x="184.2" y="231.66" width="88.68" height="24.73" rx="12.36" ry="12.36" transform="translate(-48.72 430.87) rotate(-80.85)"/><rect class="cls-1" x="8.9" y="284.05" width="68.78" height="33.04" rx="9" ry="9" transform="translate(-157.38 72.65) rotate(-33.16)"/><rect class="cls-6" x="45.22" y="261.25" width="37.78" height="49.35" rx="7.85" ry="7.85" transform="translate(-112.59 52.17) rotate(-24.45)"/><rect class="cls-2" x="231.77" y="187.53" width="6" height="20" rx="3" ry="3" transform="translate(34.39 -34.81) rotate(9.15)"/><rect class="cls-2" x="223.77" y="190.53" width="6" height="20" rx="3" ry="3" transform="translate(41.55 -38.91) rotate(10.79)"/><rect class="cls-1" x="-5.48" y="325.72" width="88.68" height="24.73" rx="12.36" ry="12.36" transform="translate(279.73 97.68) rotate(51.61)"/><rect class="cls-1" x="62.58" y="337.15" width="7" height="23" rx="3.5" ry="3.5" transform="translate(420.77 359.38) rotate(102.47)"/><rect class="cls-1" x="52.67" y="368.66" width="3.21" height="14" rx="1.5" ry="1.5" transform="translate(300.89 664.18) rotate(147.7)"/><rect class="cls-1" x="58.65" y="366.45" width="6" height="20" rx="3" ry="3" transform="translate(325.96 651.5) rotate(145.44)"/><rect class="cls-1" x="65.96" y="364.07" width="6" height="20" rx="3" ry="3" transform="translate(355.3 624.45) rotate(141.61)"/><rect class="cls-1" x="69.15" y="356.14" width="6" height="20" rx="3" ry="3" transform="translate(349 616.37) rotate(143.26)"/><rect x="136.07" y="137.79" width="12.78" height="23" rx="5.9" ry="5.9"/><ellipse class="cls-1" cx="179.43" cy="133.65" rx="22.35" ry="23.61"/><path class="cls-4" d="M137.29,189.7c-.54,9.66-11.36,16.9-24.2,16.18"/><rect x="90.08" y="138.1" width="12.78" height="23" rx="5.9" ry="5.9"/><path d="M48.14,113.06c5.41-.45,10.9-.04,16.18,1.21,2.34-6.32,2.17-13.29,3.88-19.82,2.71-10.37,9.93-18.87,16.93-26.98,2.1-2.44,4.25-4.91,6.99-6.61,3.46-2.14,7.62-2.87,11.68-3.12,5.67-.34,11.39.18,16.91,1.53,9.13,2.25,17.55,6.74,25.63,11.55,3.78,2.25,7.63,4.69,10.02,8.38,2.15,3.32,2.91,7.34,3.49,11.26,1.16,7.91,1.78,15.91,1.85,23.91,6.82,1.24,13.65,2.48,20.47,3.72-.79-8.29,1.4-16.83,6.07-23.73-4.77,3.76-10.28,6.58-16.12,8.25.13.81-.14,1.68-.71,2.27,5.67-15.1,10.93-30.36,15.78-45.75-2.45,2.22-4.9,4.44-7.34,6.67-1.18-7.68.22-15.73,3.92-22.55-6.98,2.75-13.14,7.53-17.52,13.62,2.39-8.12,5.44-16.05,9.11-23.68-5.45,2.48-10.91,4.96-16.36,7.44-3.13,1.42-6.42,2.98-8.38,5.81.14-5.69,1.59-11.35,4.22-16.4-9.75,4.36-18.64,10.61-26.05,18.31-.2-7.93,1.59-15.9,5.16-22.98-6.52,4.43-12.92,9.03-19.19,13.8-.34-6.12-.56-12.71,2.76-17.86-8.82,7.66-17.42,15.58-25.77,23.74-.74-5.01-1.32-10.66,1.8-14.65-8.02,8.19-15.13,17.27-21.16,27.01-.86-5.88-.59-11.92.81-17.7-5.86,10.1-11.85,20.55-13.33,32.13-2.05-3-2.97-6.74-2.55-10.34-3.46,15.81-5.3,31.98-5.49,48.16-1.69.82-1.93,2.66-3.66,3.4Z"/><path d="M187.13,77.03c-.89,1.3-1.01,2.95-1.14,4.51-.61,6.98-2.09,13.89-4.41,20.5-5.03-.49-10.09-.73-15.15-.72.97-1.29,1.67-2.79,2.04-4.36.43-1.81.59-3.85,1.84-5.33,1.44-1.7,3.75-2.98,5.47-4.39,1.97-1.62,3.9-3.27,5.79-4.98,1.75-1.58,4.22-3.28,5.56-5.23Z"/><path d="M175.94,100.02c.26,2.5.16,5.03-.31,7.5.06-.34-.36-.53-.7-.61-2.43-.57-4.86-1.14-7.29-1.71,1.4.33,2.17-6.52,2.23-7.24.51,2.17,5.75-.98,6.06,2.07Z"/><path d="M80.11,110.74c.42-3.32,1.16-6.6,2.2-9.78,5.59,6.21,12.41,11.31,19.94,14.93-.46-5.44-.93-10.89-1.39-16.33,9.72,8.56,20.06,16.42,30.89,23.51-2.48-5.61-4.45-11.45-5.88-17.41,5.24,3.54,11.02,6.18,16.78,8.8,7.14,3.26,14.28,6.51,21.42,9.77-2.44-13.58.02-27.52-.49-41.31-.13-3.57-.48-7.22-1.94-10.48-2.85-6.39-9.4-10.26-15.85-12.96-12.57-5.26-26.33-7.68-39.94-7-3.14.16-6.29.48-9.34,1.28-5.18,1.37-9.89,4.11-14.43,6.97-2.48,1.56-4.95,3.17-7.16,5.09-5.08,4.42-8.67,10.5-10.2,17.04-.66,2.84-1.73,7.02.24,9.5.81,1.01,1.99,1.5,2.92,2.36,1.42,1.31,2.5,3.13,3.66,4.67,2.85,3.79,5.7,7.57,8.54,11.36Z"/><path class="cls-3" d="M187.46,151.32c-.19,2.4-.35,4.91.65,7.1.22.48.52.96.99,1.21.74.39,1.73.05,2.23-.62s.57-1.59.39-2.41-.59-1.57-1-2.3"/><path d="M234.62,216.94l-10.75-1.74c-2.51-.41-4.22-2.79-3.82-5.31l4.39-27.44c.4-2.53,2.77-4.25,5.28-3.84l10.75,1.74c2.51.41,4.22,2.79,3.82,5.31l-4.39,27.44c-.4,2.53-2.77,4.25-5.28,3.84Z"/><path class="cls-5" d="M237.3,211.69l-14.32-2.32c-.92-.15-1.54-1.02-1.39-1.94l3.73-23.27c.15-.92,1.01-1.55,1.93-1.4l14.32,2.32c.92.15,1.54,1.02,1.39,1.94l-3.73,23.27c-.15.92-1.01,1.55-1.93,1.4Z"/><path class="cls-5" d="M237.64,183.3l-6.12-.99c-.14-.02-.23-.15-.21-.29l.1-.61c.02-.14.15-.23.29-.21l6.12.99c.14.02.23.15.21.29l-.1.61c-.02.14-.15.23-.29.21Z"/><ellipse class="cls-5" cx="229.69" cy="213.3" rx="1.68" ry="1.68"/><path class="cls-7" d="M232.38,198.09l3.19-3.1c.51-.41.35-1.2-.32-1.32l-5.06-.92c-.66-.12-1.21.41-.99.95l1.69,4.12c.22.54,1.05.69,1.49.27Z"/><path class="cls-7" d="M232.21,195.46h0c-1.05.4-2.27-.13-2.71-1.17l-.78-1.82c-.44-1.04.05-2.22,1.1-2.62h0c1.05-.4,2.27.13,2.71,1.17l.78,1.82c.44,1.04-.05,2.22-1.1,2.62Z"/><path class="cls-7" d="M231.75,195.63l-.05-.05c-.77-.76-.65-2.01.27-2.8l1.75-1.49c.92-.78,2.3-.8,3.07-.05l.05.05c.77.76.65,2.01-.27,2.8l-1.75,1.49c-.92.78-2.3.8-3.07.05Z"/><path class="cls-8" d="M226.83,205.23l.86-5.38.82.13,1.71,4.31-.43-.07,2.93-3.55.82.13-.85,5.38-.96-.15.62-3.9.19.03-2.47,2.97-.45-.07-1.46-3.61.23.04-.62,3.9-.95-.15Z"/><path class="cls-8" d="M232.17,206.11l.86-5.38,2.2.36c.47.08.87.22,1.18.42.32.21.54.47.68.78.14.32.17.67.11,1.07-.06.4-.21.72-.44.97-.23.25-.52.43-.89.53-.36.1-.78.11-1.25.04l-1.64-.27.51-.39-.32,2.01-.99-.16ZM233.47,204.37l-.36-.56,1.6.26c.44.07.78.03,1.04-.12s.4-.4.46-.73c.05-.34-.01-.62-.21-.84-.19-.22-.51-.37-.95-.44l-1.6-.26.51-.42-.5,3.12Z"/><rect class="cls-1" x="218.66" y="196.03" width="7.11" height="33.98" rx="3.5" ry="3.5" transform="translate(-40.52 52.62) rotate(-12.39)"/></svg>