<?xml version="1.0" encoding="UTF-8"?><svg id="Lag_1" xmlns="http://www.w3.org/2000/svg" width="256" height="384" viewBox="0 0 256 384"><defs><style>.cls-1{fill:#3e5460;}.cls-2{fill:#fcdfb5;}.cls-3{fill:#c69c6d;}.cls-4{fill:#ea3400;}.cls-5{fill:none;stroke:#000;stroke-miterlimit:10;stroke-width:2px;}.cls-6{fill:#fbd181;}</style></defs><rect class="cls-2" x="165.03" y="241.5" width="70.27" height="32.87" rx="9" ry="9" transform="translate(-71.71 77.16) rotate(-18.57)"/><rect class="cls-1" x="62.05" y="260.01" width="115.95" height="82.51"/><ellipse class="cls-1" cx="119.69" cy="266.62" rx="58.31" ry="58.09"/><rect class="cls-2" x="48.46" y="146.1" width="142.86" height="51" rx="25.5" ry="25.5" transform="translate(-51.71 291.49) rotate(-90)"/><ellipse class="cls-2" cx="118.08" cy="114.83" rx="69" ry="91.98"/><ellipse class="cls-2" cx="51.65" cy="113.39" rx="22.35" ry="23.61"/><path class="cls-5" d="M126.3,149.11c-3.38,4.23-9.89,4.62-14.54.87"/><path class="cls-5" d="M136,173c-8.62,9.43-23.38,9.87-33,1"/><rect class="cls-1" x="157.85" y="234.62" width="41.52" height="44.55" rx="7.85" ry="7.85" transform="translate(62.25 -33.55) rotate(12.98)"/><rect class="cls-2" x="186.13" y="207.87" width="88.68" height="24.73" rx="12.36" ry="12.36" transform="translate(-23.61 412.76) rotate(-80.85)"/><rect class="cls-2" x="10.83" y="260.26" width="68.78" height="33.04" rx="9" ry="9" transform="translate(-144.05 69.82) rotate(-33.16)"/><rect class="cls-1" x="47.14" y="237.46" width="37.78" height="49.35" rx="7.85" ry="7.85" transform="translate(-102.57 50.84) rotate(-24.45)"/><rect class="cls-2" x="216.39" y="181.53" width="7" height="23" rx="3.5" ry="3.5" transform="translate(-67.05 135.8) rotate(-30)"/><rect class="cls-2" x="246.18" y="175.5" width="3.21" height="14" rx="1.5" ry="1.5" transform="translate(56.66 -58.69) rotate(15.23)"/><rect class="cls-2" x="240.39" y="167.53" width="6" height="20" rx="3" ry="3" transform="translate(46.08 -50.12) rotate(12.98)"/><rect class="cls-2" x="233.7" y="163.74" width="6" height="20" rx="3" ry="3" transform="translate(30.63 -35.42) rotate(9.15)"/><rect class="cls-2" x="225.7" y="166.74" width="6" height="20" rx="3" ry="3" transform="translate(37.13 -39.69) rotate(10.79)"/><rect class="cls-2" x="-3.55" y="301.93" width="88.68" height="24.73" rx="12.36" ry="12.36" transform="translate(261.81 87.15) rotate(51.61)"/><rect class="cls-2" x="64.51" y="313.35" width="7" height="23" rx="3.5" ry="3.5" transform="translate(399.88 328.57) rotate(102.47)"/><rect class="cls-2" x="54.6" y="344.87" width="3.21" height="14" rx="1.5" ry="1.5" transform="translate(291.73 619.25) rotate(147.7)"/><rect class="cls-2" x="60.58" y="342.65" width="6" height="20" rx="3" ry="3" transform="translate(315.98 607.02) rotate(145.44)"/><rect class="cls-2" x="67.89" y="340.28" width="6" height="20" rx="3" ry="3" transform="translate(343.96 580.82) rotate(141.61)"/><rect class="cls-2" x="71.07" y="332.35" width="6" height="20" rx="3" ry="3" transform="translate(338.24 572.36) rotate(143.26)"/><path class="cls-4" d="M235.85,197.5l4.54-5.98c.74-.79.41-2.21-.61-2.35l-7.78-1.05c-1.02-.14-1.8.88-1.41,1.83l2.98,7.24c.39.95,1.66,1.12,2.29.31Z"/><path class="cls-4" d="M235.32,192.78h0c-1.55.84-3.46.04-4.24-1.79l-1.36-3.19c-.78-1.83-.15-4.01,1.41-4.85h0c1.55-.84,3.46-.04,4.24,1.79l1.36,3.19c.78,1.83.15,4.01-1.41,4.85Z"/><path class="cls-4" d="M234.64,193.14l-.08-.08c-1.24-1.27-1.18-3.56.13-5.08l2.51-2.9c1.32-1.52,3.41-1.72,4.66-.45l.08.08c1.24,1.27,1.18,3.56-.13,5.08l-2.51,2.9c-1.32,1.52-3.41,1.72-4.66.45Z"/><rect x="138" y="114" width="12.78" height="23" rx="5.9" ry="5.9"/><rect x="89.21" y="112.95" width="12.78" height="23" rx="5.9" ry="5.9"/><ellipse class="cls-2" cx="181.36" cy="109.86" rx="22.35" ry="23.61"/><path class="cls-6" d="M56.21,88.87c7.11-3.57,9.16-13.04,14.79-18.87,1.86-1.93,3.22-3.95,5-6,4.26-4.91,4.89-10.64,9.5-14.06,3.48-2.58,8.19-1.44,12.16,0,12.48,4.51,24.25,10.93,36.74,15.42,1.87.67,3.76,1.3,5.73,1.48,1.59.15,3.19,0,4.78-.16,6.72-.64,13.45-1.28,20.17-1.91,1.24,2.1,2.49,4.2,3.73,6.29,5.99,10.11,9.67,22.21,11.42,34.04.1.66.19,1.36.55,1.91s1.12.87,1.66.51c.32-.21.49-.6.64-.97,4.31-10.54,4.7-22.76,1.07-33.46-2.73-8.06-7.59-15.11-12.92-21.53-7.59-9.15-17.1-20.42-28.66-21.36-3.3-1.33-5.91-1.63-9.68-2.15-2.89-.4-5.79-1.72-8.71-1.77-21.64-.31-43.68,9.59-58.4,26.57-.44.51.86-.69-1.18.21-2.77,5.52-5.03,11.3-6.76,17.26-.43-.35-.36-1-.39-1.57-1.75,6.68-2.66,13.79-2.01,20.64-.47-.42,1.23-.11.76-.53Z"/><path class="cls-3" d="M92.85,29.44c7.21-3.12,14.92-5.01,22.72-5.91,7.57-.88,15.38-.82,22.65,1.47,8.75,2.75,16.24,8.56,22.69,15.09,2.03,2.05,3.98,4.19,5.72,6.48,6.13,8.04,9.62,17.73,13.02,27.25-10.07-14.17-25.94-24.1-43.09-26.96-6.5-1.08-13.13-1.19-19.72-1.1-5.68.08-11.35.3-17.02.67-1.9.12-3.82.26-5.69-.07-2.25-.4-4.32-1.45-6.36-2.5-2-1.03-4.72-1.89-6.44-3.35-1.96-1.66-.59-2.87.94-4.38,2.94-2.9,6.75-5.16,10.58-6.69Z"/><path class="cls-6" d="M80.16,61.93c7.25-4.89,15.71-4.1,23.41-1.09,7.7,3.01,14.96,8.09,22.55,11.69,27.42,12.99,58.91,4.98,81.89-20.82,2.28-2.56,4.38-8.27,1.86-10.25-.6-.47-1.3-.5-1.98-.53-22.14-.9-43.77-9.37-65.59-14.98-21.82-5.61-44.72-8.27-65.73,2.15-11.09,5.5-22.88,18.71-21.44,35.99.5,6.02,2.75,11.97,5.77,16.68,2.28,3.54,5.1,1.34,6.11-2.75,1.85-7.51,7.76-12.43,13.16-16.07Z"/><path class="cls-6" d="M59,46c-8.84,18.15-9.96,40.29-4.18,59.33.2.65.51,1.4,1.25,1.61.92.26,1.78-.49,2.32-1.18,3.42-4.41,4.44-9.84,5.89-15,2.17-7.74,2.37-14.75,6.72-21.77"/></svg>