<?xml version="1.0" encoding="UTF-8"?><svg id="Lag_1" xmlns="http://www.w3.org/2000/svg" width="250" height="384" viewBox="0 0 250 384"><defs><style>.cls-1{fill:#f3f7f8;}.cls-2{fill:#e9b974;}.cls-3,.cls-4{fill:none;stroke:#000;stroke-miterlimit:10;}.cls-5{fill:#ea3400;}.cls-4{stroke-width:2px;}.cls-6{fill:#42210b;}</style></defs><rect class="cls-2" x="241.16" y="176.57" width="3.21" height="14" rx="1.5" ry="1.5" transform="translate(56.76 -57.34) rotate(15.23)"/><rect class="cls-2" x="235.36" y="168.6" width="6" height="20" rx="3" ry="3" transform="translate(46.19 -48.96) rotate(12.98)"/><rect class="cls-2" x="160.36" y="241.96" width="70.27" height="32.87" rx="9" ry="9" transform="translate(-72.1 75.69) rotate(-18.57)"/><rect class="cls-1" x="57.38" y="260.48" width="115.95" height="82.51"/><ellipse class="cls-1" cx="115.02" cy="267.08" rx="58.31" ry="58.09"/><rect class="cls-2" x="43.79" y="146.56" width="142.86" height="51" rx="25.5" ry="25.5" transform="translate(-56.84 287.28) rotate(-90)"/><ellipse class="cls-2" cx="115.1" cy="114.8" rx="69" ry="91.98"/><ellipse class="cls-2" cx="46.98" cy="113.85" rx="22.35" ry="23.61"/><path class="cls-4" d="M121.63,149.57c-3.38,4.23-9.89,4.62-14.54.87"/><rect class="cls-1" x="153.18" y="235.08" width="41.52" height="44.55" rx="7.85" ry="7.85" transform="translate(62.23 -32.49) rotate(12.98)"/><rect class="cls-2" x="181.46" y="208.33" width="88.68" height="24.73" rx="12.36" ry="12.36" transform="translate(-27.99 408.54) rotate(-80.85)"/><rect class="cls-2" x="6.16" y="260.72" width="68.78" height="33.04" rx="9" ry="9" transform="translate(-145.06 67.34) rotate(-33.16)"/><rect class="cls-1" x="42.47" y="237.92" width="37.78" height="49.35" rx="7.85" ry="7.85" transform="translate(-103.18 48.94) rotate(-24.45)"/><rect class="cls-2" x="211.72" y="181.99" width="7" height="23" rx="3.5" ry="3.5" transform="translate(-67.91 133.53) rotate(-30)"/><rect class="cls-2" x="229.03" y="164.2" width="6" height="20" rx="3" ry="3" transform="translate(30.64 -34.67) rotate(9.15)"/><rect class="cls-2" x="221.03" y="167.2" width="6" height="20" rx="3" ry="3" transform="translate(37.13 -38.81) rotate(10.79)"/><rect class="cls-2" x="-8.22" y="302.39" width="88.68" height="24.73" rx="12.36" ry="12.36" transform="translate(260.4 90.99) rotate(51.61)"/><rect class="cls-2" x="59.84" y="313.82" width="7" height="23" rx="3.5" ry="3.5" transform="translate(394.66 333.69) rotate(102.47)"/><rect class="cls-2" x="49.93" y="345.33" width="3.21" height="14" rx="1.5" ry="1.5" transform="translate(283.36 622.6) rotate(147.7)"/><rect class="cls-2" x="55.91" y="343.12" width="6" height="20" rx="3" ry="3" transform="translate(307.72 610.51) rotate(145.44)"/><rect class="cls-2" x="63.22" y="340.74" width="6" height="20" rx="3" ry="3" transform="translate(335.92 584.54) rotate(141.61)"/><rect class="cls-2" x="66.4" y="332.81" width="6" height="20" rx="3" ry="3" transform="translate(330.11 575.99) rotate(143.26)"/><path class="cls-5" d="M231.18,197.96l4.54-5.98c.74-.79.41-2.21-.61-2.35l-7.78-1.05c-1.02-.14-1.8.88-1.41,1.83l2.98,7.24c.39.95,1.66,1.12,2.29.31Z"/><path class="cls-5" d="M230.65,193.24h0c-1.55.84-3.46.04-4.24-1.79l-1.36-3.19c-.78-1.83-.15-4.01,1.41-4.85h0c1.55-.84,3.46-.04,4.24,1.79l1.36,3.19c.78,1.83.15,4.01-1.41,4.85Z"/><path class="cls-5" d="M229.97,193.6l-.08-.08c-1.24-1.27-1.18-3.56.13-5.08l2.51-2.9c1.32-1.52,3.41-1.72,4.66-.45l.08.08c1.24,1.27,1.18,3.56-.13,5.08l-2.51,2.9c-1.32,1.52-3.41,1.72-4.66.45Z"/><rect x="133.33" y="114.46" width="12.78" height="23" rx="5.9" ry="5.9"/><ellipse class="cls-2" cx="176.69" cy="110.32" rx="22.35" ry="23.61"/><path class="cls-4" d="M134.55,166.37c-.54,9.66-11.36,16.9-24.2,16.18"/><ellipse class="cls-6" cx="74.1" cy="42.01" rx="12.9" ry="21.99"/><ellipse class="cls-6" cx="82.36" cy="61.8" rx="16.36" ry="21.99"/><ellipse class="cls-6" cx="97.96" cy="35.9" rx="20.04" ry="22.1"/><ellipse class="cls-6" cx="115.89" cy="30.8" rx="16.11" ry="22.1"/><ellipse class="cls-6" cx="106.85" cy="48.85" rx="14.15" ry="18.15"/><ellipse class="cls-6" cx="129.99" cy="52.14" rx="15.01" ry="18.86"/><ellipse class="cls-6" cx="168.24" cy="74.5" rx="14.76" ry="32.5" transform="translate(-13.31 44.62) rotate(-14.54)"/><ellipse class="cls-6" cx="155.1" cy="42.38" rx="12.9" ry="21.99"/><ellipse class="cls-6" cx="150.6" cy="61.38" rx="16.4" ry="21.99"/><ellipse class="cls-6" cx="139.1" cy="34.38" rx="20.04" ry="22.1"/><ellipse class="cls-6" cx="61.66" cy="74.47" rx="32.5" ry="14.76" transform="translate(-26.08 115.09) rotate(-75.22)"/><ellipse class="cls-6" cx="61.66" cy="59.47" rx="14.15" ry="18.15"/><ellipse class="cls-6" cx="168.66" cy="55.47" rx="14.15" ry="18.15"/><path d="M158.19,125.32c7.41-3.16,14.75-6.49,22-10,.43-.21.05-.86-.38-.65-7.25,3.51-14.59,6.84-22,10-.44.19-.06.83.38.65h0Z"/><path d="M50.81,115.32c7.92,3.85,15.92,7.51,24,11,.44.19.82-.46.38-.65-8.08-3.49-16.08-7.15-24-11-.43-.21-.81.44-.38.65h0Z"/><ellipse class="cls-3" cx="139.43" cy="125.82" rx="18.57" ry="18.18"/><rect x="87.34" y="114.77" width="12.78" height="23" rx="5.9" ry="5.9"/><ellipse class="cls-3" cx="93.43" cy="126.12" rx="18.57" ry="18.18"/><path d="M112.39,129.46c2.87.04,5.74.01,8.61-.09.48-.02.48-.77,0-.75-2.87.1-5.74.13-8.61.09-.48,0-.48.74,0,.75h0Z"/></svg>