<?xml version="1.0" encoding="UTF-8"?><svg id="Lag_1" xmlns="http://www.w3.org/2000/svg" width="725" height="370" viewBox="0 0 725 370"><defs><style>.cls-1{fill:#3e5460;}.cls-2{fill:#f3f7f8;}.cls-3{fill:#fcdfb5;}.cls-4{fill:#e9b974;}.cls-5{fill:#537662;}.cls-6{fill:#c69c6d;}.cls-7,.cls-8{fill:none;stroke:#000;stroke-miterlimit:10;}.cls-9{fill:#ea3400;}.cls-8{stroke-width:2px;}.cls-10{fill:#8c6239;}.cls-11{fill:#fbd181;}.cls-12{fill:#42210b;}.cls-13{fill:#ff7564;}</style></defs><rect class="cls-5" x="550.51" y="264.51" width="103.68" height="73.78"/><ellipse class="cls-5" cx="602.05" cy="270.41" rx="52.14" ry="51.94"/><rect class="cls-3" x="557.63" y="182.58" width="86.16" height="45.6" rx="22.24" ry="22.24" transform="translate(395.32 806.09) rotate(-90)"/><ellipse class="cls-10" cx="621.11" cy="50.98" rx="47.03" ry="44.23"/><ellipse class="cls-3" cx="598.63" cy="136.37" rx="82.37" ry="82.25"/><circle class="cls-3" cx="668.1" cy="133.29" r="28.17"/><circle class="cls-3" cx="532.18" cy="133.29" r="28.17"/><ellipse cx="576" cy="133.29" rx="6.71" ry="11.18"/><ellipse cx="620.71" cy="133.29" rx="6.71" ry="11.18"/><path class="cls-8" d="M603.27,160.85c-3.02,3.77-8.84,4.12-13,.78"/><path class="cls-8" d="M622.11,178.24c-.48,8.64-10.16,15.11-21.64,14.47"/><path class="cls-8" d="M623.14,135.86c1.99.11,4.03.22,5.95-.33,2.91-.83,5.32-3.23,6.15-6.14"/><path class="cls-8" d="M561.71,129.34c.97,1.74,1.97,3.52,3.46,4.85,2.26,2.01,5.58,2.76,8.48,1.91"/><circle class="cls-13" cx="640.38" cy="161.9" r="9.39"/><circle class="cls-13" cx="556.33" cy="163.69" r="9.39"/><path class="cls-10" d="M572.9,53.51c3.94,16.65,21.81,28.76,38.71,39.65,21.13,13.61,43.39,27.65,71.01,32.22.8-17.18-6.76-34.22-20.98-47.22-14.22-13-34.98-21.86-57.54-24.53-10.45-1.24-21.17-1.18-31.84-1.13"/><path class="cls-10" d="M600.11,86.14c-10.49,11.27-21.97,21.88-35.54,27.94-7.34,3.27-15.12,5.14-22.87,6.96-7.36,1.73-14.73,3.44-22.11,5.12-1.15-17.96,4.89-36.1,15.6-49.57,10.71-13.47,25.84-22.31,41.82-25.55,2.87-.58,6.79-.29,7.5,2.85"/><rect class="cls-3" x="714.84" y="189.48" width="2.87" height="12.52" rx="1.4" ry="1.4" transform="translate(76.6 -181.32) rotate(15.23)"/><rect class="cls-3" x="709.66" y="182.35" width="5.37" height="17.88" rx="2.62" ry="2.62" transform="translate(61.15 -155.07) rotate(12.98)"/><rect class="cls-3" x="642.6" y="247.95" width="62.83" height="29.4" rx="9" ry="9" transform="translate(-43.61 171.59) rotate(-14.06)"/><rect class="cls-5" x="637.07" y="243.59" width="37.12" height="39.84" rx="7.85" ry="7.85" transform="translate(75.91 -140.49) rotate(12.98)"/><rect class="cls-3" x="661.46" y="217.88" width="79.3" height="22.11" rx="10.79" ry="10.79" transform="translate(363.63 884.73) rotate(-80.85)"/><rect class="cls-3" x="504.71" y="264.73" width="61.5" height="29.54" rx="9" ry="9" transform="translate(-65.67 338.45) rotate(-33.16)"/><rect class="cls-5" x="537.18" y="244.34" width="33.78" height="44.13" rx="7.85" ry="7.85" transform="translate(-60.58 253.21) rotate(-24.45)"/><rect class="cls-3" x="688.52" y="194.32" width="6.26" height="20.57" rx="3.05" ry="3.05" transform="translate(-9.64 373.24) rotate(-30)"/><rect class="cls-3" x="704" y="178.42" width="5.37" height="17.88" rx="2.62" ry="2.62" transform="translate(38.77 -109.96) rotate(9.15)"/><rect class="cls-3" x="696.84" y="181.1" width="5.37" height="17.88" rx="2.62" ry="2.62" transform="translate(47.95 -127.6) rotate(10.79)"/><rect class="cls-3" x="491.85" y="301.98" width="79.3" height="22.11" rx="10.79" ry="10.79" transform="translate(446.82 -297.96) rotate(51.61)"/><rect class="cls-3" x="552.71" y="312.2" width="6.26" height="20.57" rx="3.05" ry="3.05" transform="translate(990.7 -150.64) rotate(102.47)"/><rect class="cls-3" x="543.84" y="340.38" width="2.87" height="12.52" rx="1.4" ry="1.4" transform="translate(1191.41 348.25) rotate(147.7)"/><rect class="cls-3" x="549.19" y="338.4" width="5.37" height="17.88" rx="2.62" ry="2.62" transform="translate(1203.4 320.35) rotate(145.44)"/><rect class="cls-3" x="555.73" y="336.28" width="5.37" height="17.88" rx="2.62" ry="2.62" transform="translate(1210.48 269.05) rotate(141.61)"/><rect class="cls-3" x="558.58" y="329.19" width="5.37" height="17.88" rx="2.62" ry="2.62" transform="translate(1213.29 273.3) rotate(143.26)"/><path class="cls-9" d="M705.92,208.61l4.06-5.34c.66-.71.36-1.98-.55-2.1l-6.96-.94c-.91-.12-1.61.79-1.26,1.64l2.67,6.47c.35.85,1.48,1,2.05.28Z"/><path class="cls-9" d="M705.45,204.38h0c-1.39.75-3.1.03-3.79-1.6l-1.22-2.86c-.7-1.63-.13-3.59,1.26-4.34h0c1.39-.75,3.1-.03,3.79,1.6l1.22,2.86c.7,1.63.13,3.59-1.26,4.34Z"/><path class="cls-9" d="M704.84,204.71l-.07-.07c-1.11-1.14-1.06-3.18.12-4.54l2.25-2.6c1.18-1.36,3.05-1.54,4.16-.41l.07.07c1.11,1.14,1.06,3.18-.12,4.54l-2.25,2.6c-1.18,1.36-3.05,1.54-4.16.41Z"/><rect class="cls-3" x="167.44" y="238.67" width="70.27" height="32.87" rx="9" ry="9" transform="translate(-70.68 77.77) rotate(-18.57)"/><rect class="cls-1" x="64.45" y="257.19" width="115.95" height="82.51"/><ellipse class="cls-1" cx="122.1" cy="263.79" rx="58.31" ry="58.09"/><rect class="cls-3" x="50.86" y="143.27" width="142.86" height="51" rx="25.5" ry="25.5" transform="translate(-46.48 291.06) rotate(-90)"/><ellipse class="cls-3" cx="120.49" cy="112" rx="69" ry="91.98"/><ellipse class="cls-3" cx="54.06" cy="110.56" rx="22.35" ry="23.61"/><path class="cls-8" d="M128.7,146.28c-3.38,4.23-9.89,4.62-14.54.87"/><path class="cls-8" d="M138.4,170.17c-8.62,9.43-23.38,9.87-33,1"/><rect class="cls-1" x="160.26" y="231.79" width="41.52" height="44.55" rx="7.85" ry="7.85" transform="translate(61.67 -34.16) rotate(12.98)"/><rect class="cls-3" x="188.53" y="205.04" width="88.68" height="24.73" rx="12.36" ry="12.36" transform="translate(-18.79 412.76) rotate(-80.85)"/><rect class="cls-3" x="13.23" y="257.44" width="68.78" height="33.04" rx="9" ry="9" transform="translate(-142.11 70.68) rotate(-33.16)"/><rect class="cls-1" x="49.55" y="234.63" width="37.78" height="49.35" rx="7.85" ry="7.85" transform="translate(-101.19 51.58) rotate(-24.45)"/><rect class="cls-3" x="218.79" y="178.7" width="7" height="23" rx="3.5" ry="3.5" transform="translate(-65.32 136.63) rotate(-30)"/><rect class="cls-3" x="248.58" y="172.67" width="3.21" height="14" rx="1.5" ry="1.5" transform="translate(56 -59.42) rotate(15.23)"/><rect class="cls-3" x="242.79" y="164.7" width="6" height="20" rx="3" ry="3" transform="translate(45.51 -50.73) rotate(12.98)"/><rect class="cls-3" x="236.1" y="160.91" width="6" height="20" rx="3" ry="3" transform="translate(30.21 -35.84) rotate(9.15)"/><rect class="cls-3" x="228.1" y="163.91" width="6" height="20" rx="3" ry="3" transform="translate(36.64 -40.19) rotate(10.79)"/><rect class="cls-3" x="-1.15" y="299.1" width="88.68" height="24.73" rx="12.36" ry="12.36" transform="translate(260.51 84.19) rotate(51.61)"/><rect class="cls-3" x="66.91" y="310.53" width="7" height="23" rx="3.5" ry="3.5" transform="translate(400.04 322.78) rotate(102.47)"/><rect class="cls-3" x="57" y="342.04" width="3.21" height="14" rx="1.5" ry="1.5" transform="translate(294.66 612.75) rotate(147.7)"/><rect class="cls-3" x="62.98" y="339.83" width="6" height="20" rx="3" ry="3" transform="translate(318.76 600.5) rotate(145.44)"/><rect class="cls-3" x="70.29" y="337.45" width="6" height="20" rx="3" ry="3" transform="translate(346.49 574.28) rotate(141.61)"/><rect class="cls-3" x="73.48" y="329.52" width="6" height="20" rx="3" ry="3" transform="translate(340.88 565.83) rotate(143.26)"/><path class="cls-9" d="M238.25,194.67l4.54-5.98c.74-.79.41-2.21-.61-2.35l-7.78-1.05c-1.02-.14-1.8.88-1.41,1.83l2.98,7.24c.39.95,1.66,1.12,2.29.31Z"/><path class="cls-9" d="M237.72,189.95h0c-1.55.84-3.46.04-4.24-1.79l-1.36-3.19c-.78-1.83-.15-4.01,1.41-4.85h0c1.55-.84,3.46-.04,4.24,1.79l1.36,3.19c.78,1.83.15,4.01-1.41,4.85Z"/><path class="cls-9" d="M237.04,190.31l-.08-.08c-1.24-1.27-1.18-3.56.13-5.08l2.51-2.9c1.32-1.52,3.41-1.72,4.66-.45l.08.08c1.24,1.27,1.18,3.56-.13,5.08l-2.51,2.9c-1.32,1.52-3.41,1.72-4.66.45Z"/><rect x="140.4" y="111.17" width="12.78" height="23" rx="5.9" ry="5.9"/><rect x="91.61" y="110.12" width="12.78" height="23" rx="5.9" ry="5.9"/><ellipse class="cls-3" cx="183.76" cy="107.03" rx="22.35" ry="23.61"/><path class="cls-11" d="M58.61,86.04c7.11-3.57,9.16-13.04,14.79-18.87,1.86-1.93,3.22-3.95,5-6,4.26-4.91,4.89-10.64,9.5-14.06,3.48-2.58,8.19-1.44,12.16,0,12.48,4.51,24.25,10.93,36.74,15.42,1.87.67,3.76,1.3,5.73,1.48,1.59.15,3.19,0,4.78-.16,6.72-.64,13.45-1.28,20.17-1.91,1.24,2.1,2.49,4.2,3.73,6.29,5.99,10.11,9.67,22.21,11.42,34.04.1.66.19,1.36.55,1.91s1.12.87,1.66.51c.32-.21.49-.6.64-.97,4.31-10.54,4.7-22.76,1.07-33.46-2.73-8.06-7.59-15.11-12.92-21.53-7.59-9.15-17.1-20.42-28.66-21.36-3.3-1.33-5.91-1.63-9.68-2.15-2.89-.4-5.79-1.72-8.71-1.77-21.64-.31-43.68,9.59-58.4,26.57-.44.51.86-.69-1.18.21-2.77,5.52-5.03,11.3-6.76,17.26-.43-.35-.36-1-.39-1.57-1.75,6.68-2.66,13.79-2.01,20.64-.47-.42,1.23-.11.76-.53Z"/><path class="cls-6" d="M95.26,26.61c7.21-3.12,14.92-5.01,22.72-5.91,7.57-.88,15.38-.82,22.65,1.47,8.75,2.75,16.24,8.56,22.69,15.09,2.03,2.05,3.98,4.19,5.72,6.48,6.13,8.04,9.62,17.73,13.02,27.25-10.07-14.17-25.94-24.1-43.09-26.96-6.5-1.08-13.13-1.19-19.72-1.1-5.68.08-11.35.3-17.02.67-1.9.12-3.82.26-5.69-.07-2.25-.4-4.32-1.45-6.36-2.5-2-1.03-4.72-1.89-6.44-3.35-1.96-1.66-.59-2.87.94-4.38,2.94-2.9,6.75-5.16,10.58-6.69Z"/><path class="cls-11" d="M82.56,59.1c7.25-4.89,15.71-4.1,23.41-1.09,7.7,3.01,14.96,8.09,22.55,11.69,27.42,12.99,58.91,4.98,81.89-20.82,2.28-2.56,4.38-8.27,1.86-10.25-.6-.47-1.3-.5-1.98-.53-22.14-.9-43.77-9.37-65.59-14.98-21.82-5.61-44.72-8.27-65.73,2.15-11.09,5.5-22.88,18.71-21.44,35.99.5,6.02,2.75,11.97,5.77,16.68,2.28,3.54,5.1,1.34,6.11-2.75,1.85-7.51,7.76-12.43,13.16-16.07Z"/><path class="cls-11" d="M61.4,43.17c-8.84,18.15-9.96,40.29-4.18,59.33.2.65.51,1.4,1.25,1.61.92.26,1.78-.49,2.32-1.18,3.42-4.41,4.44-9.84,5.89-15,2.17-7.74,2.37-14.75,6.72-21.77"/><rect class="cls-4" x="489.43" y="177.98" width="3.1" height="13.52" rx="1.5" ry="1.5" transform="translate(65.79 -122.51) rotate(15.23)"/><rect class="cls-4" x="483.83" y="170.28" width="5.8" height="19.32" rx="2.87" ry="2.87" transform="translate(52.84 -104.7) rotate(12.98)"/><rect class="cls-4" x="411.38" y="241.16" width="67.88" height="31.76" rx="9" ry="9" transform="translate(-58.66 155.17) rotate(-18.57)"/><rect class="cls-2" x="311.89" y="259.04" width="112.02" height="79.71"/><ellipse class="cls-2" cx="367.58" cy="265.42" rx="56.33" ry="56.12"/><rect class="cls-4" x="298.76" y="148.99" width="138.01" height="49.27" rx="24.43" ry="24.43" transform="translate(194.14 541.39) rotate(-90)"/><ellipse class="cls-4" cx="367.65" cy="118.31" rx="66.66" ry="88.85"/><ellipse class="cls-4" cx="301.84" cy="117.39" rx="21.59" ry="22.81"/><path class="cls-8" d="M373.96,151.9c-3.27,4.09-9.55,4.47-14.05.84"/><rect class="cls-2" x="404.44" y="234.51" width="40.11" height="43.04" rx="7.85" ry="7.85" transform="translate(68.33 -88.78) rotate(12.98)"/><rect class="cls-4" x="431.76" y="208.67" width="85.67" height="23.89" rx="11.85" ry="11.85" transform="translate(181.34 654.1) rotate(-80.85)"/><rect class="cls-4" x="262.41" y="259.28" width="66.44" height="31.92" rx="9" ry="9" transform="translate(-102.41 206.56) rotate(-33.16)"/><rect class="cls-2" x="297.49" y="237.25" width="36.5" height="47.68" rx="7.85" ry="7.85" transform="translate(-79.75 154.09) rotate(-24.45)"/><rect class="cls-4" x="460.99" y="183.22" width="6.76" height="22.22" rx="3.35" ry="3.35" transform="translate(-34.95 258.22) rotate(-30)"/><rect class="cls-4" x="477.71" y="166.03" width="5.8" height="19.32" rx="2.87" ry="2.87" transform="translate(34.04 -74.17) rotate(9.15)"/><rect class="cls-4" x="469.98" y="168.93" width="5.8" height="19.32" rx="2.87" ry="2.87" transform="translate(41.79 -85.37) rotate(10.79)"/><rect class="cls-4" x="248.52" y="299.53" width="85.67" height="23.89" rx="11.85" ry="11.85" transform="translate(354.57 -110.32) rotate(51.61)"/><rect class="cls-4" x="314.26" y="310.57" width="6.76" height="22.22" rx="3.35" ry="3.35" transform="translate(700.3 80.95) rotate(102.47)"/><rect class="cls-4" x="304.69" y="341.01" width="3.1" height="13.52" rx="1.5" ry="1.5" transform="translate(750.93 478.08) rotate(147.7)"/><rect class="cls-4" x="310.47" y="338.87" width="5.8" height="19.32" rx="2.87" ry="2.87" transform="translate(769.14 457.82) rotate(145.44)"/><rect class="cls-4" x="317.53" y="336.58" width="5.8" height="19.32" rx="2.87" ry="2.87" transform="translate(786.59 418.66) rotate(141.61)"/><rect class="cls-4" x="320.61" y="328.92" width="5.8" height="19.32" rx="2.87" ry="2.87" transform="translate(785.29 416.35) rotate(143.26)"/><path class="cls-9" d="M479.79,198.65l4.38-5.77c.71-.77.39-2.13-.59-2.27l-7.52-1.02c-.98-.13-1.74.85-1.36,1.77l2.88,6.99c.38.92,1.6,1.08,2.21.3Z"/><path class="cls-9" d="M479.28,194.09h0c-1.5.81-3.34.04-4.1-1.73l-1.32-3.08c-.75-1.76-.14-3.87,1.36-4.69h0c1.5-.81,3.34-.04,4.1,1.73l1.32,3.08c.75,1.76.14,3.87-1.36,4.69Z"/><path class="cls-9" d="M478.62,194.44l-.08-.08c-1.2-1.23-1.14-3.44.13-4.9l2.43-2.8c1.27-1.47,3.3-1.67,4.5-.44l.08.08c1.2,1.23,1.14,3.44-.13,4.9l-2.43,2.8c-1.27,1.47-3.3,1.67-4.5.44Z"/><rect x="385.26" y="117.98" width="12.34" height="22.22" rx="5.9" ry="5.9"/><ellipse class="cls-4" cx="427.15" cy="113.98" rx="21.59" ry="22.81"/><path class="cls-8" d="M386.44,168.13c-.52,9.33-10.98,16.33-23.38,15.63"/><ellipse class="cls-12" cx="328.04" cy="47.98" rx="12.47" ry="21.25"/><ellipse class="cls-12" cx="336.02" cy="67.1" rx="15.81" ry="21.25"/><ellipse class="cls-12" cx="351.09" cy="42.09" rx="19.36" ry="21.35"/><ellipse class="cls-12" cx="368.41" cy="37.15" rx="15.57" ry="21.35"/><ellipse class="cls-12" cx="359.68" cy="54.59" rx="13.67" ry="17.54"/><ellipse class="cls-12" cx="382.04" cy="57.77" rx="14.5" ry="18.22"/><ellipse class="cls-12" cx="418.99" cy="79.37" rx="14.26" ry="31.4" transform="translate(-6.51 107.72) rotate(-14.54)"/><ellipse class="cls-12" cx="406.29" cy="48.34" rx="12.47" ry="21.25"/><ellipse class="cls-12" cx="401.94" cy="66.7" rx="15.85" ry="21.25"/><ellipse class="cls-12" cx="390.84" cy="40.61" rx="19.36" ry="21.35"/><ellipse class="cls-12" cx="316.02" cy="79.35" rx="31.4" ry="14.26" transform="translate(158.67 364.67) rotate(-75.22)"/><ellipse class="cls-12" cx="316.02" cy="64.86" rx="13.67" ry="17.54"/><ellipse class="cls-12" cx="419.39" cy="60.99" rx="13.67" ry="17.54"/><path d="M409.28,128.48c7.16-3.05,14.25-6.27,21.25-9.66.43-.21.05-.86-.38-.65-7.01,3.39-14.09,6.61-21.25,9.66-.44.19-.06.83.38.65h0Z"/><path d="M305.54,118.82c7.65,3.71,15.38,7.26,23.19,10.63.44.19.82-.46.38-.65-7.81-3.37-15.54-6.91-23.19-10.63-.43-.21-.81.44-.38.65h0Z"/><ellipse class="cls-7" cx="391.15" cy="128.95" rx="17.94" ry="17.57"/><rect x="340.83" y="118.28" width="12.34" height="22.22" rx="5.9" ry="5.9"/><ellipse class="cls-7" cx="346.72" cy="129.25" rx="17.94" ry="17.57"/><path d="M365.04,132.49c2.77.04,5.54.01,8.31-.09.48-.02.48-.77,0-.75-2.77.1-5.54.13-8.31.09-.48,0-.48.74,0,.75h0Z"/></svg>