<?xml version="1.0" encoding="UTF-8"?><svg id="Lag_1" xmlns="http://www.w3.org/2000/svg" width="275" height="376" viewBox="0 0 275 376"><defs><style>.cls-1{fill:#fcdfb5;}.cls-2{fill:#ffe9c9;}.cls-3{fill:#323e47;}.cls-4{fill:#6d94a3;}.cls-5{fill:#ea3400;}.cls-6{fill:none;stroke:#000;stroke-miterlimit:10;stroke-width:2px;}.cls-7{fill:#8c6239;}.cls-8{fill:#ff7564;}</style></defs><path class="cls-7" d="M150.48,65.31c3.45-6.06,9.5-10.36,16.07-12.71,6.57-2.35,13.65-2.91,20.62-2.81,4.5.07,9.02.4,13.37,1.54,10.01,2.6,18.81,9.57,23.65,18.72,4.83,9.15,5.63,20.34,2.13,30.08,4.33-.02,8.66-.67,12.81-1.95.55,1.41.12,3.06-.74,4.3s-2.1,2.17-3.32,3.08c-2.74,2.04-5.71,4.16-9.12,4.24-2.29,7.07,2.84,15,8.57,19.74.77.64,1.6,1.37,1.7,2.36.14,1.47-1.36,2.52-2.67,3.2-3.87,2.03-7.8,3.96-11.77,5.8,6.6,6.31,17.36,7.78,25.4,3.45-5.77,7.39-11.54,14.78-17.31,22.17-5.58,7.15-11.27,14.4-18.68,19.61s-16.94,8.18-25.67,5.74"/><circle class="cls-1" cx="189.84" cy="132.71" r="24"/><rect class="cls-1" x="172.48" y="254.69" width="70.27" height="32.87" rx="9" ry="9" transform="translate(-75.52 80.21) rotate(-18.57)"/><rect class="cls-4" x="69.5" y="273.2" width="116.34" height="82.51"/><ellipse class="cls-4" cx="127.34" cy="279.8" rx="58.5" ry="58.09"/><rect class="cls-1" x="55.91" y="159.28" width="142.86" height="51" rx="25.5" ry="25.5" transform="translate(-57.45 312.12) rotate(-90)"/><ellipse class="cls-1" cx="124.11" cy="146.16" rx="76.72" ry="76.55"/><circle class="cls-1" cx="57.84" cy="132.71" r="24"/><ellipse cx="98.26" cy="131.47" rx="7.5" ry="12.5"/><ellipse cx="148.26" cy="131.47" rx="7.5" ry="12.5"/><path class="cls-6" d="M128.75,162.29c-3.38,4.22-9.89,4.6-14.54.87"/><path class="cls-6" d="M149.82,181.73c-.54,9.66-11.36,16.9-24.2,16.18"/><path class="cls-6" d="M151.08,134.42c2.23.13,4.5.25,6.65-.37,3.25-.93,5.95-3.62,6.88-6.87"/><path class="cls-6" d="M82.2,127.12c1.09,1.95,2.2,3.94,3.87,5.42,2.52,2.25,6.24,3.09,9.48,2.14"/><circle class="cls-8" cx="170.26" cy="163.47" r="10.5"/><circle class="cls-8" cx="76.26" cy="165.47" r="10.5"/><rect class="cls-4" x="165.3" y="247.81" width="41.52" height="44.55" rx="7.85" ry="7.85" transform="translate(65.4 -34.88) rotate(12.98)"/><rect class="cls-1" x="193.58" y="221.06" width="88.68" height="24.73" rx="12.36" ry="12.36" transform="translate(-30.36 431.21) rotate(-80.85)"/><rect class="cls-1" x="18.28" y="273.45" width="68.78" height="33.04" rx="9" ry="9" transform="translate(-150.05 76.05) rotate(-33.16)"/><rect class="cls-4" x="54.59" y="250.65" width="37.78" height="49.35" rx="7.85" ry="7.85" transform="translate(-107.36 55.1) rotate(-24.45)"/><rect class="cls-1" x="223.84" y="194.71" width="7" height="23" rx="3.5" ry="3.5" transform="translate(-72.65 141.3) rotate(-30)"/><rect class="cls-1" x="253.63" y="188.69" width="3.21" height="14" rx="1.5" ry="1.5" transform="translate(60.38 -60.19) rotate(15.23)"/><rect class="cls-1" x="247.84" y="180.71" width="6" height="20" rx="3" ry="3" transform="translate(49.23 -51.45) rotate(12.98)"/><rect class="cls-1" x="241.15" y="176.93" width="6" height="20" rx="3" ry="3" transform="translate(32.82 -36.44) rotate(9.15)"/><rect class="cls-1" x="233.15" y="179.93" width="6" height="20" rx="3" ry="3" transform="translate(39.73 -40.85) rotate(10.79)"/><rect class="cls-1" x="3.9" y="315.11" width="88.68" height="24.73" rx="12.36" ry="12.36" transform="translate(274.97 86.31) rotate(51.61)"/><rect class="cls-1" x="71.96" y="326.54" width="7" height="23" rx="3.5" ry="3.5" transform="translate(421.82 337.33) rotate(102.47)"/><rect class="cls-1" x="68.03" y="355.84" width="6" height="20" rx="3" ry="3" transform="translate(337.04 626.84) rotate(145.44)"/><rect class="cls-1" x="75.34" y="353.46" width="6" height="20" rx="3" ry="3" transform="translate(365.44 599.71) rotate(141.61)"/><rect class="cls-1" x="78.52" y="345.54" width="6" height="20" rx="3" ry="3" transform="translate(359.55 591.66) rotate(143.26)"/><path class="cls-5" d="M243.3,210.69l4.54-5.98c.74-.79.41-2.21-.61-2.35l-7.78-1.05c-1.02-.14-1.8.88-1.41,1.83l2.98,7.24c.39.95,1.66,1.12,2.29.31Z"/><path class="cls-5" d="M242.77,205.97h0c-1.55.84-3.46.04-4.24-1.79l-1.36-3.19c-.78-1.83-.15-4.01,1.41-4.85h0c1.55-.84,3.46-.04,4.24,1.79l1.36,3.19c.78,1.83.15,4.01-1.41,4.85Z"/><path class="cls-5" d="M242.09,206.33l-.08-.08c-1.24-1.27-1.18-3.56.13-5.08l2.51-2.9c1.32-1.52,3.41-1.72,4.66-.45l.08.08c1.24,1.27,1.18,3.56-.13,5.08l-2.51,2.9c-1.32,1.52-3.41,1.72-4.66.45Z"/><rect class="cls-1" x="62.87" y="359.2" width="3" height="13.94" rx="1.5" ry="1.5" transform="translate(-174.46 81.24) rotate(-30)"/><path class="cls-3" d="M147.54,76.27c5.76,4.02,11.73,7.17,17.84,9.38.53.19,1.08.38,1.62.34.72-.06,1.4-.51,2.08-.88,2.21-1.19,4.6-1.51,6.9-.92.14-2.44-.8-4.66-1.71-6.59-2.94-6.19-6.36-12.27-10.87-14.72-.98-.53-2-.88-3.02-1.22-1.27-.43-2.53-.86-3.8-1.29-.7-.24-1.41-.48-2.12-.34-.92.17-1.74.96-2.54,1.72-2.22,2.15-4.48,4.41-6.27,7.5-.39.67-2.39,4.07-2.09,5.05.18.58,1.41.47,1.77.62.76.31,1.49.84,2.21,1.34Z"/><path class="cls-7" d="M53.19,112.7c-.06,7.2-.13,14.4-.19,21.6,3.06-5.93,6.84-11.35,11.17-16.05,1.66-1.8,3.47-3.54,5.63-4.33,2-.72,4.13-.58,6.21-.42,11.76.91,23.53,1.97,35.31,2.25,9.27.23,18.55-.03,27.82-.28,13.15-.36,25.93-.51,39.08-.87-.56.49,1.63-.49,1.07,0,1.83-.88,1.62,1.16,3.16,2.62,1.55,1.45,2.6,3.49,3.63,5.49,2.27,4.43,4.54,8.85,6.81,13.28.55-4.15,1.11-8.3,1.66-12.45.35-2.59.69-5.26.17-7.81-.51-2.51-1.81-4.67-3.11-6.74-4.45-7.1-9.24-13.9-14.33-20.37-2.29-2.91-4.8-5.86-8.03-6.92-2.51-.82-5.14-4.17-7.14-6.14-3.47-3.42-6.99-6.88-11.06-9.22-3.8-2.19-7.97-3.34-12.16-3.99-12.62-1.95-23.24-3.64-35.77-1.02-4.49.94-8.58,2.54-15.02,6.34-5.17,3.05-10.73,7.61-15.12,11.4-3.28,2.83-6.57,5.62-9.55,8.89-6.13,6.72-10.18,14.84-10.26,24.72Z"/><polygon class="cls-2" points="153.47 102.5 146.32 116.06 161.64 115.47 153.47 102.5"/></svg>